<svg width="64" height="64" viewBox="0 0 64 64" fill="none" xmlns="http://www.w3.org/2000/svg">
  <!-- Cat face background circle -->
  <circle cx="32" cy="32" r="30" fill="#3B82F6" stroke="#1E40AF" stroke-width="2"/>
  
  <!-- Cat ears -->
  <path d="M20 20 L25 10 L30 20 Z" fill="#1E40AF"/>
  <path d="M34 20 L39 10 L44 20 Z" fill="#1E40AF"/>
  
  <!-- Inner ear details -->
  <path d="M22 18 L25 12 L28 18 Z" fill="#60A5FA"/>
  <path d="M36 18 L39 12 L42 18 Z" fill="#60A5FA"/>
  
  <!-- Cat eyes -->
  <ellipse cx="26" cy="28" rx="4" ry="6" fill="#1E40AF"/>
  <ellipse cx="38" cy="28" rx="4" ry="6" fill="#1E40AF"/>
  
  <!-- Eye highlights -->
  <ellipse cx="27" cy="26" rx="1.5" ry="2" fill="#FFFFFF"/>
  <ellipse cx="39" cy="26" rx="1.5" ry="2" fill="#FFFFFF"/>
  
  <!-- Cat nose -->
  <path d="M32 35 L30 38 L34 38 Z" fill="#1E40AF"/>
  
  <!-- Cat mouth -->
  <path d="M32 38 Q28 42 24 40" stroke="#1E40AF" stroke-width="2" fill="none"/>
  <path d="M32 38 Q36 42 40 40" stroke="#1E40AF" stroke-width="2" fill="none"/>
  
  <!-- Whiskers -->
  <line x1="18" y1="32" x2="24" y2="34" stroke="#1E40AF" stroke-width="1.5"/>
  <line x1="18" y1="36" x2="24" y2="36" stroke="#1E40AF" stroke-width="1.5"/>
  <line x1="40" y1="34" x2="46" y2="32" stroke="#1E40AF" stroke-width="1.5"/>
  <line x1="40" y1="36" x2="46" y2="36" stroke="#1E40AF" stroke-width="1.5"/>
</svg>
